# xmcd
#
# Track frame offsets: 
#        150
#        10160
#        22392
#        34898
#        49837
#        64257
#        81377
#        94249
#        110523
#        123559
#        137270
#        146995
#        158300
#        172528
#        186457
#        198059
#        208782
#        222243
#        232612
#        248829
#        263837
#        278293
#        292207
#        301352
#        312178
#        333277
#
# Disc length: 4493 seconds
#
# Revision: 0
# Processed by: cddbd v1.5.2PL0 Copyright (c) Steve Scherf et al.
# Submitted via: ExactAudioCopy v0.99pb5
#
DISCID=74118b1a
DTITLE=Various Artist - King Of The Road - CD 3 - Oh, My Darling
DYEAR=2010
DGENRE=Country
TTITLE0=Freddy Quinn - Oh, My Darling Clementine
TTITLE1=Tom Astor and Claudia Jung - Wer Liebe sucht
TTITLE2=Ralf Paulsen - Kleine Annabell (Version 1994)
TTITLE3=Alabama - Love in the first degree
TTITLE4=Bellamy Brothers - If I said you have a beautiful body, would 
TTITLE4=you hold it against me
TTITLE5=Linda Feller - Du bist das Salz in meiner Suppe
TTITLE6=Jonny Hill - Mein Lied für dich
TTITLE7=Kenny Rogers - Lucille
TTITLE8=Lynn Anderson - Rose garden
TTITLE9=Volker Lechtenbrink - Meine Tür steht immer offen
TTITLE10=Martin Lauer - Die letzte Rose der Prärie
TTITLE11=Bobby Bare - Alabama rose
TTITLE12=Loretta Doherty - Poor poor pityful me
TTITLE13=Tom Astor - Du bist da (wenn's drum geht)
TTITLE14=Conway Twitty - To see an angel
TTITLE15=Billie Jo Spears - I'm so lonesome I could cry (Neuaufnahme)
TTITLE16=Freddy Quinn - Oh, nur mit dir
TTITLE17=Peter Held - Die schönste Frau aus Texas
TTITLE18=Mickey Gilley - Stand by me
TTITLE19=Conway Twitty - (Lost her love) on our last date
TTITLE20=Jonny Hill - Wenn ich dich verliere
TTITLE21=Dolly Parton - I will always love you
TTITLE22=Ralf Paulsen - Tränen in deinen Augen (Version 1994)
TTITLE23=Peter Hinnen - Die Rose von Mexico
TTITLE24=Bobbejaan - Wie 'ne Kneipe ohne Bier
TTITLE25=Data Track
EXTD=
EXTT0=
EXTT1=
EXTT2=
EXTT3=
EXTT4=
EXTT5=
EXTT6=
EXTT7=
EXTT8=
EXTT9=
EXTT10=
EXTT11=
EXTT12=
EXTT13=
EXTT14=
EXTT15=
EXTT16=
EXTT17=
EXTT18=
EXTT19=
EXTT20=
EXTT21=
EXTT22=
EXTT23=
EXTT24=
EXTT25=
PLAYORDER=
